# xmcd CD database file
#
# Track frame offsets:
#	150
#	13483
#	29871
#	43175
#	60385
#	73533
#	85346
#	98842
#	116969
#	130821
#	144297
#	154849
#	167251
#
# Disc length: 2426 seconds
#
# Revision: 2
# Processed by: cddbd v1.5.2PL0 Copyright (c) Steve Scherf et al.
# Submitted via: ACXtractor (MTCDDB.DLL V2003.07.15)
#
DISCID=b409780d
DTITLE=Matt Manning - New Wave Balladeer
DYEAR=2005
DGENRE=Country
TTITLE0=A New Wave Balladeer
TTITLE1=Stumbling Nighthorse
TTITLE2=Return Of The Stockman
TTITLE3=True Bush Balladeers
TTITLE4=Lonely City Bushman
TTITLE5=Old Memories
TTITLE6=The Man With Calloused Hands
TTITLE7=Stringybark And Greenhide
TTITLE8=Ned's Creek
TTITLE9=Dairyman's Dream
TTITLE10=Many Yesterdays Ago
TTITLE11=Now That The Old Hall's Not Around
TTITLE12=You've Gotta Go West Young Fella
EXTD=ID3G:   2 YEAR: 2005
EXTT0=
EXTT1=
EXTT2=
EXTT3=
EXTT4=
EXTT5=
EXTT6=
EXTT7=
EXTT8=
EXTT9=
EXTT10=
EXTT11=
EXTT12=
PLAYORDER=
